# Blender v3.1.2 OBJ File: ''
# www.blender.org
o banana
scale 2.5
v -0.000000 -0.129932 0.660558
v -0.160021 0.001031 0.626931
v -0.089897 0.190338 0.585932
v 0.169069 -0.050677 0.474926
v 0.097727 0.159123 0.468410
v -0.097727 0.159123 0.468410
v -0.000000 -0.175112 0.497132
v -0.169069 -0.050677 0.474926
v 0.170406 -0.055368 0.323856
v -0.000000 -0.179148 0.323856
v -0.000000 -0.159500 0.179175
v -0.000000 -0.133195 -0.021715
v 0.170381 -0.049187 0.179007
v 0.168996 -0.016492 -0.016298
v 0.103730 0.174598 0.170086
v 0.101321 0.224355 -0.013225
v -0.103730 0.174598 0.170086
v -0.101321 0.224355 -0.013225
v -0.170381 -0.049187 0.179007
v -0.168996 -0.016492 -0.016298
v 0.103282 0.151731 0.334181
v -0.103282 0.151731 0.334181
v -0.170406 -0.055368 0.323856
v 0.160021 0.001031 0.626931
v 0.089896 0.190338 0.585932
v -0.135896 0.126884 0.821413
v -0.000000 0.024448 0.875085
v -0.073390 0.268968 0.755341
v 0.135895 0.126884 0.821413
v 0.073389 0.268968 0.755341
v -0.095529 0.286158 0.969477
v -0.000000 0.255846 1.031914
v -0.059040 0.335204 0.868452
v 0.095529 0.286158 0.969477
v 0.059040 0.335204 0.868452
v -0.053492 0.376297 0.998054
v -0.000000 0.359324 1.033016
v -0.033060 0.403760 0.941486
v 0.053491 0.376297 0.998054
v 0.033060 0.403760 0.941486
v 0.163257 0.080819 -0.253493
v -0.000000 -0.016767 -0.292762
v 0.097184 0.314786 -0.190436
v -0.097184 0.314786 -0.190436
v -0.163257 0.080819 -0.253493
v 0.151327 0.297096 -0.420185
v -0.000000 0.208649 -0.493867
v 0.091324 0.449056 -0.302672
v -0.091324 0.449056 -0.302672
v -0.151327 0.297096 -0.420185
v 0.106352 0.684736 -0.551865
v -0.000000 0.641845 -0.616137
v 0.065729 0.754135 -0.447871
v -0.065729 0.754135 -0.447871
v -0.106352 0.684736 -0.551865
v 0.046325 0.809399 -0.611610
v -0.000000 0.790717 -0.639606
v 0.028630 0.839628 -0.566312
v -0.028630 0.839628 -0.566312
v -0.046325 0.809399 -0.611610
v 0.046325 1.008742 -0.744640
v -0.000000 0.990060 -0.772635
v 0.028630 1.038971 -0.699342
v -0.028630 1.038971 -0.699342
v -0.046325 1.008742 -0.744640
vn 0.9513 0.3084 -0.0012
vn 0.0000 0.9985 -0.0550
vn -0.9393 0.3418 -0.0282
vn -0.9463 0.3225 0.0214
vn 0.5942 -0.8041 0.0187
vn 0.0000 0.9071 -0.4210
vn -0.6425 -0.7130 0.2808
vn 0.5842 -0.8042 -0.1092
vn 0.5401 -0.8344 -0.1093
vn 0.5971 -0.7732 0.2137
vn -0.9571 0.2867 0.0426
vn 0.9571 0.2867 0.0412
vn 0.0000 0.9665 -0.2567
vn -0.5431 -0.8389 -0.0359
vn 0.0000 0.9651 0.2620
vn 0.9642 0.2447 0.1024
vn -0.5874 -0.8087 0.0303
vn -0.9571 0.2867 0.0412
vn 0.9459 0.3200 -0.0526
vn 0.9514 0.3077 0.0130
vn -0.5401 -0.8344 -0.1093
vn 0.0000 0.9904 0.1380
vn -0.6025 -0.4561 0.6549
vn 0.9400 0.3276 -0.0954
vn -0.6420 -0.6049 0.4711
vn -0.9257 0.3694 -0.0813
vn 0.6185 -0.6378 0.4590
vn -0.8884 0.4472 -0.1038
vn 0.5838 -0.4555 0.6721
vn -0.9267 0.3634 -0.0952
vn 0.0000 0.8629 -0.5053
vn 0.9160 0.3719 -0.1503
vn -0.0000 0.8996 0.4367
vn 0.0000 0.7291 -0.6844
vn 0.8884 0.4472 -0.1038
vn -0.5491 -0.0089 0.8357
vn 0.5491 -0.0089 0.8357
vn -0.9545 0.2134 0.2085
vn 0.5415 -0.7731 -0.3303
vn 0.0000 0.8907 0.4545
vn -0.9594 0.2685 0.0869
vn -0.5433 -0.7714 -0.3313
vn -0.5314 -0.2301 -0.8152
vn 0.9540 0.2157 0.2082
vn -0.5000 -0.5765 -0.6462
vn 0.0000 0.6413 0.7673
vn 0.5931 -0.4707 -0.6532
vn -0.5507 -0.1300 -0.8245
vn 0.0000 0.4297 0.9029
vn 0.5656 -0.2057 -0.7986
vn -0.9521 0.1915 0.2385
vn 0.9507 0.1947 0.2414
vn 0.5878 -0.4491 -0.6729
vn 0.0000 0.8108 0.5853
vn 0.5507 -0.1300 -0.8245
vn -0.8911 0.4515 0.0468
vn 0.8911 0.4515 0.0468
vn 0.0000 0.8318 -0.5551
vn -0.9511 0.1715 0.2570
vn 0.9511 0.1715 0.2570
vn -0.5878 -0.4491 -0.6729
vn 0.0000 0.5551 0.8318
vn 0.9463 0.3225 0.0214
vn -0.9459 0.3200 -0.0526
vn -0.9513 0.3084 -0.0012
vn 0.5874 -0.8087 0.0303
vn -0.5971 -0.7732 0.2137
vn 0.5431 -0.8389 -0.0359
vn 0.5657 -0.8126 -0.1401
vn 0.6425 -0.7130 0.2808
vn -0.9514 0.3077 0.0130
vn 0.9612 0.2693 0.0605
vn -0.5842 -0.8042 -0.1092
vn 0.9594 0.2685 0.0869
vn -0.5942 -0.8041 0.0187
vn -0.9612 0.2693 0.0605
vn 0.9393 0.3418 -0.0282
vn 0.9571 0.2867 0.0426
vn -0.5657 -0.8126 -0.1401
vn -0.5838 -0.4555 0.6721
vn 0.9257 0.3694 -0.0813
vn -0.6185 -0.6378 0.4590
vn -0.9400 0.3276 -0.0954
vn 0.6420 -0.6049 0.4711
vn 0.6025 -0.4561 0.6549
vn -0.9160 0.3719 -0.1503
vn 0.9267 0.3634 -0.0952
vn -0.9540 0.2157 0.2082
vn 0.5433 -0.7714 -0.3313
vn -0.9642 0.2447 0.1024
vn -0.5415 -0.7731 -0.3303
vn -0.5656 -0.2057 -0.7986
vn 0.9545 0.2134 0.2085
vn -0.5931 -0.4707 -0.6532
vn 0.5000 -0.5765 -0.6462
vn 0.5314 -0.2301 -0.8152
vn -0.9507 0.1947 0.2414
vn 0.9521 0.1915 0.2385
s off
f 21//1 4//1 9//1
f 22//2 5//2 21//2
f 6//3 2//3 3//3
f 22//4 8//4 6//4
f 10//5 4//5 7//5
f 3//6 30//6 25//6
f 8//7 1//7 2//7
f 11//8 9//8 10//8
f 12//9 13//9 11//9
f 4//10 1//10 7//10
f 19//11 22//11 17//11
f 14//12 15//12 13//12
f 6//13 25//13 5//13
f 11//14 23//14 19//14
f 16//15 17//15 15//15
f 16//16 41//16 43//16
f 10//17 8//17 23//17
f 17//18 20//18 19//18
f 5//19 24//19 4//19
f 13//20 21//20 9//20
f 19//21 12//21 11//21
f 17//22 21//22 15//22
f 27//23 31//23 26//23
f 25//24 29//24 24//24
f 2//25 27//25 26//25
f 3//26 26//26 28//26
f 24//27 27//27 1//27
f 31//28 38//28 33//28
f 27//29 34//29 32//29
f 26//30 33//30 28//30
f 28//31 35//31 30//31
f 29//32 35//32 34//32
f 39//33 38//33 36//33
f 35//34 38//34 40//34
f 35//35 39//35 34//35
f 32//36 36//36 31//36
f 34//37 37//37 32//37
f 44//38 50//38 45//38
f 14//39 42//39 41//39
f 16//40 44//40 18//40
f 18//41 45//41 20//41
f 20//42 42//42 12//42
f 50//43 52//43 47//43
f 43//44 46//44 48//44
f 45//45 47//45 42//45
f 43//46 49//46 44//46
f 41//47 47//47 46//47
f 55//48 57//48 52//48
f 48//49 54//49 49//49
f 46//50 52//50 51//50
f 49//51 55//51 50//51
f 48//52 51//52 53//52
f 57//53 61//53 56//53
f 53//54 59//54 54//54
f 51//55 57//55 56//55
f 54//56 60//56 55//56
f 53//57 56//57 58//57
f 62//58 64//58 63//58
f 59//59 65//59 60//59
f 58//60 61//60 63//60
f 57//61 65//61 62//61
f 58//62 64//62 59//62
f 21//63 5//63 4//63
f 22//2 6//2 5//2
f 6//64 8//64 2//64
f 22//65 23//65 8//65
f 10//66 9//66 4//66
f 3//6 28//6 30//6
f 8//67 7//67 1//67
f 11//68 13//68 9//68
f 12//69 14//69 13//69
f 4//70 24//70 1//70
f 19//71 23//71 22//71
f 14//72 16//72 15//72
f 6//13 3//13 25//13
f 11//73 10//73 23//73
f 16//15 18//15 17//15
f 16//74 14//74 41//74
f 10//75 7//75 8//75
f 17//76 18//76 20//76
f 5//77 25//77 24//77
f 13//78 15//78 21//78
f 19//79 20//79 12//79
f 17//22 22//22 21//22
f 27//80 32//80 31//80
f 25//81 30//81 29//81
f 2//82 1//82 27//82
f 3//83 2//83 26//83
f 24//84 29//84 27//84
f 31//28 36//28 38//28
f 27//85 29//85 34//85
f 26//86 31//86 33//86
f 28//31 33//31 35//31
f 29//87 30//87 35//87
f 36//33 37//33 39//33
f 39//33 40//33 38//33
f 35//34 33//34 38//34
f 35//35 40//35 39//35
f 32//36 37//36 36//36
f 34//37 39//37 37//37
f 44//88 49//88 50//88
f 14//89 12//89 42//89
f 16//40 43//40 44//40
f 18//90 44//90 45//90
f 20//91 45//91 42//91
f 50//92 55//92 52//92
f 43//93 41//93 46//93
f 45//94 50//94 47//94
f 43//46 48//46 49//46
f 41//95 42//95 47//95
f 55//48 60//48 57//48
f 48//49 53//49 54//49
f 46//96 47//96 52//96
f 49//97 54//97 55//97
f 48//98 46//98 51//98
f 57//53 62//53 61//53
f 53//54 58//54 59//54
f 51//55 52//55 57//55
f 54//56 59//56 60//56
f 53//57 51//57 56//57
f 63//58 61//58 62//58
f 62//58 65//58 64//58
f 59//59 64//59 65//59
f 58//60 56//60 61//60
f 57//61 60//61 65//61
f 58//62 63//62 64//62
